<?xml version="1.0" encoding="utf-8"?>
<!-- Generator: Adobe Illustrator 26.0.1, SVG Export Plug-In . SVG Version: 6.00 Build 0)  -->
<svg version="1.1" id="Layer_1" xmlns="http://www.w3.org/2000/svg" xmlns:xlink="http://www.w3.org/1999/xlink" x="0px" y="0px"
	 viewBox="0 0 300 150" style="enable-background:new 0 0 300 150;" xml:space="preserve">
<style type="text/css">
	.st0{fill:#F9004D;}
</style>
<g>
	<g>
		<path d="M55.8,66.9c0,2.9-0.1,8.2-0.4,15.7c-0.3,7.5-0.6,13.5-0.9,17.6L52.2,96L36.4,66.9c-3.8,0-6.8,0.1-9,0.1
			c-3,0-6.4,0-10.3-0.1v5.8l-0.4,10.8l-1.5,26.7l-0.8,7.9c3.8,0,6.3-0.1,7.7-0.1c1.6,0,3.9,0,7.1,0.1l0.3-14.9l0.8-17.7
			c1.2,2.5,2.4,4.6,3.6,6.6c1.8,3.3,3.7,6.5,5.7,10.1l6.3,10.7c0.7,1.1,1.6,2.9,2.9,5.3c4.2,0,7.4-0.1,9.8-0.1c2.8,0,5.8,0,9.1,0.1
			l0.2-9L69.6,78l0.9-11.2c-4,0-6.5,0.1-7.3,0.1C61.4,66.9,58.9,66.9,55.8,66.9z"/>
		<path d="M76.7,66.9v4.8c0,10.8-0.7,26.3-2.1,46.4c4.6,0,7.7-0.1,9.2-0.1l7.6,0.1c0-4.3,0.1-9.5,0.2-15.6
			c0.1-6.1,0.4-12.6,0.8-19.6c0.2-5.1,0.7-10.3,1.1-15.9c-4.7,0-7.4,0.1-8.1,0.1C84,66.9,81.1,66.9,76.7,66.9z"/>
		<path d="M114.6,106.9l0.1-5.2l1.1-21.2l0.9-13.6c-3.4,0-5.8,0.1-7.6,0.1c-2.6,0-5.6,0-9-0.1c0,4.3-0.1,9.8-0.4,16.5
			c-0.2,6.7-0.7,13.5-1.2,20.3c-0.2,3.7-0.7,8.5-1.3,14.5c6.1,0,13.1-0.1,21.1-0.1c5.9,0,12.2,0,18.7,0.1l0.8-11.3
			c-3.4,0.2-8.3,0.2-14.9,0.2C121.7,107,118.9,107,114.6,106.9z"/>
		<path d="M197.9,80.8c-1.3-3-3.5-5.8-6.2-8.2c-2.8-2.4-6.1-4-9.8-5.2c-3.7-1.1-7.5-1.6-11.6-1.6c-6.3,0-11.9,1.1-16.8,3.5
			c-4.9,2.4-8.8,5.5-11.2,9.7c-2.6,4.2-3.8,9-3.8,14.4c0,3.7,0.6,7.1,1.8,10.2c1.2,3,3.3,5.8,6.1,8.3c2.8,2.5,6.3,4.3,10.1,5.4
			c3.9,1.1,8,1.7,12.1,1.7c4.3,0,8.4-0.6,12.3-1.7c3.9-1.1,7.3-2.9,10.2-5.4c2.8-2.5,5.1-5.4,6.5-9c1.5-3.5,2.2-7.4,2.2-11.6
			C199.9,87.5,199.3,83.9,197.9,80.8z M181.9,99.6c-1.2,2.5-3,4.5-5.3,5.8c-2.4,1.3-4.8,2.1-7.6,2.1c-2.6,0-5.1-0.7-7.4-1.9
			c-2.4-1.2-4-2.9-5.2-5.2c-1.1-2.2-1.7-4.6-1.7-7.3c0-2.9,0.7-5.6,1.9-8.1s3-4.5,5.4-5.8c2.4-1.5,4.9-2.1,7.7-2.1
			c2.7,0,5.2,0.7,7.3,1.9c2.1,1.2,3.8,3,4.9,5.3c1.1,2.2,1.7,4.7,1.7,7.4C183.8,94.5,183.1,97.1,181.9,99.6z"/>
		<path d="M268.7,39.3C268.7,39.3,268.7,39.4,268.7,39.3l-37.8,59.4V99v0.3v0.3l-0.2,5.7c-0.2,3.8-0.3,8-0.4,12.5
			c-3.5,0-6.3-0.1-8.2-0.1c-2,0-4.7,0-8.2,0.1c0.2-2,0.6-5.5,0.9-10.3c0.3-4.8,0.6-8.3,0.6-10.3l-17.2-30.6c3.8,0,6.8,0.1,9.3,0.1
			c2.4,0,5.2,0,8.4-0.1c1,2.5,2.4,5.5,4,9s3.1,6.5,4.2,9.3c2.9-5.1,5.2-9,7-11.9c0.2-0.2,0.3-0.6,0.4-0.8l13-21.3
			c0.8-1.3,2.1-2.5,3.6-3L268.7,39.3z"/>
	</g>
	<polygon class="st0" points="270.3,39.3 291.5,39.3 262.9,51 	"/>
	<g>
		<g>
			<path d="M30,39.1l-0.1,1H34L33,46h-4.2l-2.7,17.1l-8.3,0.1l2.7-17.1l0,0l1-5.9l0,0l0.1-0.7c0.2-1.5,0.7-2.7,1.2-3.7
				c0.6-1,1.2-1.9,2.1-2.7c0.8-0.7,1.8-1.2,2.8-1.6c1-0.3,2.2-0.6,3.5-0.6c1.1,0,2.1,0.1,3,0.2c0.4,0.1,0.9,0.1,1.2,0.2
				c0.3,0.1,0.7,0.1,0.9,0.2l-2.1,5.9c-0.7-0.2-1.3-0.3-2-0.3c-0.8,0-1.3,0.1-1.7,0.4C30.2,38.1,30.1,38.5,30,39.1z"/>
			<path d="M52,47.1l1.1-7.1c-0.7-0.2-1.3-0.3-2-0.3c-1.2,0-2.4,0.3-3.4,1.1c-1,0.8-1.9,1.9-2.6,3.6h-0.2l0.7-4.4h-8.1l-3.7,23
				l8.3-0.1l1.9-12c0.3-1.5,0.9-2.5,1.8-3.3c0.9-0.8,1.9-1.1,3.1-1.1c0.2,0,0.4,0,0.7,0c0.2,0,0.6,0,0.8,0.1c0.2,0,0.6,0.1,0.8,0.1
				C51.4,46.9,51.8,46.9,52,47.1z"/>
			<path d="M74.3,42.7c-1.7-2.1-4.4-3.1-7.9-3c-1.2,0-2.5,0.1-3.5,0.4c-1.1,0.2-2.1,0.7-3,1.1c-0.9,0.4-1.8,1.1-2.6,1.8
				c-0.8,0.7-1.5,1.5-2,2.4c-0.4,0.7-0.9,1.3-1.2,2.1c-0.3,0.8-0.6,1.5-0.8,2.2c-0.2,0.8-0.3,1.6-0.4,2.4c-0.1,0.8-0.1,1.6-0.1,2.4
				c0,2.5,0.7,4.5,2,6.1c1.8,2.1,4.5,3.1,8.2,3c1.6,0,3.1-0.2,4.5-0.6c1.3-0.3,2.6-0.9,3.6-1.6c1-0.7,2-1.6,2.7-2.5
				c0.8-1,1.3-2,1.8-3.3H68c-0.4,0.7-0.9,1.2-1.6,1.6c-0.7,0.3-1.5,0.6-2.2,0.6c-1.2,0-2.1-0.3-2.7-1c-0.4-0.6-0.7-1.2-0.7-2
				c0-0.3,0-0.7,0.1-1.1l14.9-0.1l0.3-1.9c0.1-0.4,0.1-0.9,0.1-1.3c0-0.4,0-0.9,0-1.2C76.2,46.2,75.6,44.1,74.3,42.7z M68.8,48.7
				h-7.2c0.2-1.1,0.8-1.9,1.6-2.5c0.8-0.6,1.7-0.9,2.6-0.9c0.4,0,0.9,0.1,1.2,0.2c0.3,0.1,0.7,0.3,1,0.6c0.2,0.2,0.4,0.6,0.6,0.9
				s0.2,0.7,0.2,1.1C68.9,48.3,68.8,48.5,68.8,48.7z"/>
			<path d="M100.5,42.4c-1.7-2.1-4.4-3.1-7.9-3c-1.2,0-2.5,0.1-3.5,0.4c-1.1,0.2-2.1,0.7-3,1.1c-0.9,0.4-1.8,1.1-2.6,1.8
				c-0.8,0.7-1.5,1.5-2,2.4c-0.4,0.7-0.9,1.3-1.2,2.1c-0.3,0.8-0.6,1.5-0.8,2.2c-0.2,0.8-0.3,1.6-0.4,2.4s-0.1,1.6-0.1,2.4
				c0,2.5,0.7,4.5,2,6.1c1.8,2.1,4.5,3.1,8.2,3c1.6,0,3.1-0.2,4.5-0.6c1.3-0.3,2.6-0.9,3.6-1.6c1-0.7,1.9-1.6,2.7-2.5
				c0.8-1,1.3-2,1.8-3.3h-7.5c-0.4,0.7-0.9,1.2-1.7,1.6c-0.7,0.3-1.5,0.6-2.2,0.6c-1.2,0-2.1-0.3-2.7-1c-0.4-0.6-0.7-1.2-0.7-2
				c0-0.3,0-0.7,0.1-1.1l14.9-0.1l0.3-1.9c0.1-0.4,0.1-0.9,0.1-1.3s0-0.9,0-1.2C102.4,46,101.7,44,100.5,42.4z M95,48.5h-7.2
				c0.2-1.1,0.8-1.9,1.6-2.5c0.8-0.6,1.7-0.9,2.6-0.9c0.4,0,0.9,0.1,1.3,0.2c0.3,0.1,0.7,0.3,1,0.6c0.2,0.2,0.4,0.6,0.6,0.9
				s0.2,0.7,0.2,1.1C95,48.2,95,48.4,95,48.5z"/>
			<path d="M108.3,31.9l-3.8,24c0,0.3-0.1,0.7-0.1,0.9c0,0.3,0,0.6,0,0.9c0,1.8,0.6,3,1.7,3.8c1.1,0.8,2.8,1.1,4.8,1.1
				c1,0,2-0.1,2.7-0.2c0.8-0.1,1.3-0.3,1.9-0.4l-0.3-5.7c-0.2,0.1-0.6,0.1-1,0.1c-0.9,0-1.3-0.3-1.3-1c0-0.1,1.2-8,3.7-23.6
				L108.3,31.9z"/>
			<path d="M140.9,43c-0.4-0.8-1-1.5-1.8-2c-0.8-0.6-1.8-1-3-1.3c-1.2-0.3-2.6-0.4-4.2-0.4c-3.3,0-5.9,0.8-8.2,2.4
				c-2,1.5-3.1,3.3-3.7,5.5h7.6c0.2-0.8,0.7-1.3,1.2-1.6c0.6-0.3,1.2-0.4,1.9-0.4c0.7,0,1.2,0.1,1.6,0.4c0.3,0.2,0.6,0.7,0.6,1.1
				v0.3c-0.1,0.6-0.6,1.1-1.5,1.3c-0.4,0.1-1,0.3-1.7,0.4c-0.7,0.1-1.6,0.2-2.6,0.3c-1.6,0.1-3,0.4-4.4,1c-1.3,0.6-2.5,1.3-3.4,2.4
				c-0.7,0.8-1.1,1.6-1.5,2.6s-0.4,2-0.4,2.9c0,0.9,0.1,1.7,0.4,2.4c0.3,0.7,0.8,1.2,1.3,1.6c0.6,0.4,1.3,0.8,2.1,0.9
				c0.8,0.2,1.7,0.3,2.6,0.3c1.6,0,2.9-0.3,4-0.9c1.2-0.6,2.2-1.5,3.1-2.8h0.2l-0.6,3.3h7.7l2.6-15.8c0.1-0.3,0.1-0.7,0.1-1.1
				C141.6,44.6,141.3,43.8,140.9,43z M132,54.2c-0.2,1.1-0.8,1.9-1.6,2.5c-0.8,0.6-1.7,0.9-2.6,0.9c-0.7,0-1.1-0.1-1.6-0.4
				s-0.6-0.7-0.6-1.2v-0.3c0.2-1.2,1.2-2.1,3.1-2.5c0.7-0.1,1.3-0.2,1.9-0.3c0.6-0.1,1.1-0.3,1.6-0.4L132,54.2z"/>
			<path d="M167.4,40.8c-0.6-0.6-1.2-1.1-2.1-1.5c-0.9-0.3-1.8-0.4-2.9-0.4c-1.6,0-3.1,0.4-4.5,1.2c-1.5,0.8-2.5,1.9-3.3,3.5h-0.2
				l0.7-4.4h-7.9l-3.7,23l8.3-0.1l2-13c0.2-1.2,0.7-2.1,1.5-2.8c0.7-0.6,1.6-0.9,2.5-0.9s1.7,0.2,2.1,0.7c0.4,0.4,0.7,1.1,0.7,2
				c0,0.1,0,0.3,0,0.4c0,0.1,0,0.3,0,0.4l-2,13l8.3-0.1l2.4-14.7c0-0.3,0.1-0.7,0.1-0.9c0-0.3,0-0.7,0-0.9c0-1-0.1-1.8-0.4-2.7
				C168.4,42.1,167.9,41.4,167.4,40.8z"/>
			<path d="M192.2,40.9c-0.8-0.7-1.8-1.2-3-1.7c-1.2-0.3-2.6-0.6-4.2-0.6c-2.5,0-4.7,0.6-6.6,1.6c-1.9,1-3.5,2.4-4.7,4
				c-1.2,1.8-2,3.8-2.5,6.4c-0.1,0.9-0.2,1.7-0.2,2.6c0,1.3,0.2,2.6,0.7,3.7c0.3,0.9,0.8,1.6,1.2,2.4c0.6,0.7,1.2,1.2,2,1.8
				c0.8,0.4,1.7,0.9,2.8,1.1c1.1,0.2,2.2,0.3,3.5,0.3c3.4,0,6.2-0.9,8.4-2.7c2.2-1.8,3.7-4.3,4.3-7.4h-7.6c-0.3,1.2-0.9,2.2-1.6,2.8
				c-0.7,0.6-1.5,0.9-2.4,0.9c-0.9,0-1.6-0.3-2-0.9c-0.4-0.7-0.8-1.6-0.8-2.8c0-0.3,0-0.6,0-0.9s0.1-0.7,0.1-1
				c0.1-1,0.3-1.8,0.7-2.6c0.3-0.7,0.7-1.3,1-1.8c0.3-0.4,0.8-0.8,1.3-1c0.4-0.2,1-0.3,1.5-0.3c0.9,0,1.6,0.2,2,0.8
				c0.4,0.6,0.7,1.3,0.7,2.4v0.4h7.6c0-0.3,0.1-0.7,0.1-0.9c0-0.3,0-0.7,0-0.9c0-1.2-0.2-2.2-0.7-3.3
				C193.6,42.4,193.1,41.7,192.2,40.9z"/>
			<path d="M217.9,41.7c-1.7-2.1-4.4-3.1-7.9-3c-1.2,0-2.5,0.1-3.5,0.4c-1.1,0.2-2.1,0.7-3,1.1s-1.8,1.1-2.6,1.8s-1.5,1.5-2,2.4
				c-0.4,0.7-0.9,1.3-1.2,2.1c-0.3,0.8-0.6,1.5-0.8,2.2c-0.2,0.8-0.3,1.6-0.4,2.4c-0.1,0.8-0.1,1.6-0.1,2.4c0,2.5,0.7,4.5,2,6.1
				c1.8,2.1,4.5,3.1,8.2,3c1.6,0,3.1-0.2,4.5-0.6c1.3-0.3,2.6-0.9,3.6-1.6c1-0.7,1.9-1.6,2.7-2.5c0.8-1,1.3-2,1.8-3.3h-7.5
				c-0.4,0.7-0.9,1.2-1.7,1.6c-0.7,0.3-1.5,0.6-2.2,0.6c-1.2,0-2.1-0.3-2.7-1c-0.4-0.6-0.7-1.2-0.7-2c0-0.3,0-0.7,0.1-1.1l14.9-0.1
				l0.3-1.9c0.1-0.4,0.1-0.9,0.1-1.3s0-0.9,0-1.2C219.8,45.1,219.1,43.1,217.9,41.7z M212.4,47.7h-7.2c0.2-1.1,0.8-1.9,1.6-2.5
				c0.8-0.6,1.7-0.9,2.6-0.9c0.4,0,0.9,0.1,1.3,0.2c0.3,0.1,0.7,0.3,1,0.6c0.2,0.2,0.4,0.6,0.6,0.9c0.1,0.3,0.2,0.7,0.2,1.1
				C212.5,47.4,212.5,47.5,212.4,47.7z"/>
			<path d="M239.1,38.4c-1.2,0-2.4,0.3-3.4,1.1c-1,0.8-1.9,1.9-2.6,3.6h-0.2l0.7-4.4h-8.1l-3.7,23l8.3-0.1l1.9-12
				c0.3-1.5,0.9-2.5,1.8-3.3c0.9-0.8,1.9-1.1,3.1-1.1c0.2,0,0.4,0,0.7,0c0.2,0,0.6,0,0.8,0.1c0.2,0,0.6,0.1,0.8,0.1s0.6,0.1,0.8,0.2
				l1.1-7.1C240.4,38.4,239.8,38.3,239.1,38.4z"/>
		</g>
		<g>
			<path d="M103.7,35.7H38.9c-0.4,0-0.9-0.4-0.9-0.9c0-0.4,0.4-0.9,0.9-0.9h64.9c0.4,0,0.9,0.4,0.9,0.9
				C104.6,35.4,104.3,35.7,103.7,35.7z"/>
		</g>
		<g>
			<path d="M241.1,35.7H119.4c-0.4,0-0.9-0.4-0.9-0.9c0-0.4,0.4-0.9,0.9-0.9h121.7c0.4,0,0.9,0.4,0.9,0.9
				C242,35.4,241.7,35.7,241.1,35.7z"/>
		</g>
	</g>
</g>
</svg>
